<svg xmlns="http://www.w3.org/2000/svg" width="207.886" height="298.932" viewBox="0 0 207.886 298.932">
  <g id="Group_22" data-name="Group 22" transform="translate(-979.058 -100.768)" opacity="0.45">
    <path id="Path_68" data-name="Path 68" d="M959.32,67.85c26.13,13.46,59.51,25.47,78.38,6.6s6.87-52.25-6.6-78.39l-6.43,11.82s11.63,24.58-8.66,44.87-44.88,8.67-44.88,8.67Z" transform="translate(81.91 166.9)" fill="#f2f5f9"/>
    <path id="Path_69" data-name="Path 69" d="M1039.78,76.52c27-27-3.74-79-18.5-104.06-7.84-13.29-23.85-35.95-43-38.38-8.62-1.1-16.73,2.08-24.09,9.44h0l4.15,4.15h0c6.1-6.09,12.38-8.64,19.2-7.77,17.31,2.2,32.83,25.59,38.7,35.54,12.91,21.9,43.15,73.17,19.41,96.92s-75-6.5-96.92-19.41c-10-5.87-33.35-21.39-35.54-38.69-.87-6.83,1.68-13.11,7.77-19.21L906.81-9.1c-7.37,7.36-10.55,15.47-9.45,24.1,1,8.22,7.42,24.75,38.38,43C960.75,72.78,1012.82,103.49,1039.78,76.52Z" transform="translate(81.91 166.9)" fill="#f2f5f9"/>
    <path id="Path_70" data-name="Path 70" d="M950.15-60.5,935.42-45.77a8.62,8.62,0,0,0-2.53,6.1,8.62,8.62,0,0,0,2.529,6.1h0a8.62,8.62,0,0,0,6.1,2.53,8.62,8.62,0,0,0,6.1-2.53L962.34-48.3Z" transform="translate(81.91 166.9)" fill="#f2f5f9"/>
    <path id="Path_71" data-name="Path 71" d="M902.76-13.11l14.73-14.73a8.62,8.62,0,0,1,6.1-2.529,8.62,8.62,0,0,1,6.1,2.529h0a8.62,8.62,0,0,1,2.529,6.1,8.62,8.62,0,0,1-2.529,6.1L915-.91Z" transform="translate(81.91 166.9)" fill="#f2f5f9"/>
    <path id="Path_72" data-name="Path 72" d="M1096.52,170.21a29.07,29.07,0,0,0,0-41.11l-56.73-56.73-4.16,4.16,56.74,56.73a23.19,23.19,0,1,1-32.8,32.79L1017.8,124.3a29.07,29.07,0,1,0-41.111,41.111L1026.78,215.5l4.15-4.15-50.09-50.09a23.2,23.2,0,0,1,32.81-32.81l41.75,41.76A29.1,29.1,0,0,0,1096.52,170.21Z" transform="translate(81.91 166.9)" fill="#f2f5f9"/>
    <circle id="Ellipse_10" data-name="Ellipse 10" cx="19.38" cy="19.38" r="19.38" transform="translate(1091.38 360.94)" fill="#f2f5f9"/>
    <circle id="Ellipse_11" data-name="Ellipse 11" cx="9.73" cy="9.73" r="9.73" transform="translate(1101.03 370.59)" fill="#f2f5f9"/>
  </g>
</svg>
