<svg id="Search" xmlns="http://www.w3.org/2000/svg" width="1072.011" height="336.173" viewBox="0 0 1072.011 336.173">
  <g id="Group_24" data-name="Group 24" transform="translate(-114.116 -428.827)">
    <g id="Layer_2" data-name="Layer 2" transform="matrix(0.788, -0.616, 0.616, 0.788, 941.984, 523.035)">
      <g id="Layer_2-2" data-name="Layer 2" transform="translate(0.02)">
        <path id="Path_2" data-name="Path 2" d="M131.722,394.656a10.955,10.955,0,1,0-15.3-15.682L102.75,392.311,118.047,408Z" transform="translate(-72.57 -265.441)" fill="#f2f5f9"/>
        <path id="Path_3" data-name="Path 3" d="M55.715,467.007l14.325-13.972-8.284-8.5L54.74,437.35,40.415,451.325a10.955,10.955,0,1,0,15.3,15.682Z" transform="translate(-26.214 -308.867)" fill="#f2f5f9"/>
        <path id="Path_4" data-name="Path 4" d="M289.437,414.512A17.333,17.333,0,0,0,264.936,439Z" transform="translate(-183.845 -289.47)" fill="#f2f5f9"/>
        <path id="Path_5" data-name="Path 5" d="M293.628,460.556a17.333,17.333,0,0,0,13.611-28.076L282.89,456.825a17.251,17.251,0,0,0,10.738,3.731Z" transform="translate(-199.79 -305.428)" fill="#f2f5f9"/>
        <path id="Path_6" data-name="Path 6" d="M135.268,653.614q-52.739.115-105.466.018c-9.019,0-13.775-.881-15.814-4.542H7.76c1.572,6.313,6,9.2,14.43,9.818,4.9.355,9.853.106,14.783.106,33.52,0,67.04.056,100.562-.021,11.654-.026,16.8-2.312,18.59-9.9H150C147.771,652.3,143.014,653.6,135.268,653.614Z" transform="translate(-5.486 -458.403)" fill="#f2f5f9"/>
        <path id="Path_7" data-name="Path 7" d="M8.137,175.187H99.548v-.206h27.515c5.623-.949,11.393-.338,17.11-.082,1.469,4.815,2.106,8.611,1.807,11.557h5.309c.118-1.469.17-3.073.165-4.836-.07-20.044-.438-40.08,1.266-60.095a82.23,82.23,0,0,0-1.375-23.549c-2.579-12.6-7.767-22.48-21.3-26.966-7.87-2.609-15.667-7.018-18.949-17.771,6.363-1.061,9.169-4.319,8.331-10.306-1.7-12.092-1.41-24.251-.311-36.346.47-5.047-1.545-6.572-5.958-6.572Q76.69.018,40.2,0C35.17,0,33.607,1.833,34,7.247a229.908,229.908,0,0,1,.206,31.49c-.455,6.918-2.083,13.4,7.932,14.727C38.443,63.855,30.676,68.532,22.4,71.323,10.608,75.3,5.144,83.606,2.385,94.778A78.468,78.468,0,0,0,.276,120.225c1.789,21.328,1.357,42.68,1.334,64.043,0,.767.024,1.5.065,2.2H7.359A50.824,50.824,0,0,1,8.137,175.187Zm139-61.931c.068,17.95.041,35.9.041,53.4-3.264,1.34-3.837,1.745-4.445,1.8-18.951,1.648-18.881,1.6-18.6-17.374.206-14,.041-28.009.041-42.078,8.285-2.074,14.933-1.645,21.977-.614A26.05,26.05,0,0,1,147.137,113.256ZM46.337,17.242a7.906,7.906,0,0,1,7.906-7.906H97.721a7.906,7.906,0,0,1,7.9,7.906V34.049a7.906,7.906,0,0,1-7.9,7.906H54.242a7.906,7.906,0,0,1-7.906-7.906ZM24.53,76.493c9.874-3.525,19.125-9.128,22.541-20.379,1.29-4.257,4.6-4.028,7.911-4.031h43.35c3.39,0,6.463.085,7.759,4.277,3.481,11.193,12.785,16.745,22.677,20.235,11.936,4.207,15.276,12.956,17.121,24.19-6.169,1.824-11.71.881-17.168.911a6.889,6.889,0,0,1-2.753-.761h-8.478c-.032.123-.053.241-.088.367H7.341C8.754,89.073,12.749,80.715,24.53,76.493ZM5.837,113.562c0-4.042,1.607-5.967,5.826-5.961,35.368.062,70.732.035,106.776.035,1.722,20.494-.408,40.024-.123,60.336H5.86C5.86,149.491,5.89,131.526,5.837,113.562Z" transform="translate(-0.02)" fill="#f2f5f9"/>
      </g>
    </g>
    <g id="Layer_2-3" data-name="Layer 2" transform="translate(114.116 569.485)">
      <g id="Layer_1" data-name="Layer 1" transform="translate(0 0.028)">
        <path id="Path_158" data-name="Path 158" d="M245.856,98.948a2.174,2.174,0,0,0,.376-3.049l-8.387-10.76a2.174,2.174,0,0,0-3.055-.376l-1.075.837-1.708,1.337L195.136,39.681l1.708-1.336,1.076-.839a2.174,2.174,0,0,0,.374-3.05L189.908,23.7a2.174,2.174,0,0,0-3.052-.377L183.3,26.1l-1.774,1.384-.115-.155L168.553,10.851l.831-.649a2.174,2.174,0,0,0,.376-3.049L164.851.861A2.174,2.174,0,0,0,161.8.49L138.319,18.8a2.174,2.174,0,0,0-.376,3.049l4.9,6.292a2.174,2.174,0,0,0,1.448.82,1.918,1.918,0,0,0,.283.017,2.174,2.174,0,0,0,1.32-.466l.831-.648,12.857,16.482.116.148-1.771,1.381-3.561,2.779a2.174,2.174,0,0,0-.376,3.049l8.395,10.76a2.174,2.174,0,0,0,1.446.82,2.465,2.465,0,0,0,.283.017,2.174,2.174,0,0,0,1.32-.466L166.51,62l1.708-1.336,2.839,3.637,2.384,3.047c.124-.079.207-.129.207-.129l.988,1.66,16.621,21.313,13.837,17.737-1.708,1.337-1.075.839a2.174,2.174,0,0,0-.376,3.049l8.387,10.76a2.174,2.174,0,0,0,3.05.376l5.33-4.158,2.71,3.474a2.174,2.174,0,0,0,3.05.376l18.4-14.349a2.174,2.174,0,0,0,.377-3.05l-2.71-3.474Zm-4.388-2.089-.179.14-3.439,2.682-1.708,1.336-1.708,1.337-14.967,11.676-1.708,1.336L216.05,116.7l-3.47,2.7-.155.124-.185-.236-5.546-7.1,1.075-.837,1.708-1.337,1.708-1.336.071-.056,1.651-1.283,16.628-12.972,1.646-1.284.067-.051,1.708-1.337,1.708-1.337,1.075-.837,5.549,7.113Zm-49.006-60.6-1.708,1.336-1.708,1.337-1.708,1.337-16.618,12.97-1.708,1.337L167.3,55.908l-1.708,1.337-1.075.837L158.8,50.752l1.073-.839,1.708-1.336.829-.648,1.708-1.337,1.708-1.337,14.966-11.675,1.708-1.337,1.708-1.336.832-.648,1.708-1.336,1.075-.839,5.72,7.331Zm-29.7-31.006L165,8.113,144.94,23.757l-2.233-2.866Zm2.979,7.8,7.8,11.26,4.122,5.956.016.02-.017-.019L164.19,14.255h0ZM188.307,45.01l21.661,30.009-23.28-28.747Zm4.593-3.583L228.365,88.8,215.531,72.882,191.214,42.735l.5-.387Zm30.6,77.791-1.373-1.76L237.1,105.782l1.375,1.76Z" transform="translate(-116.132 -0.028)" fill="#f2f5f9"/>
        <rect id="Rectangle_394" data-name="Rectangle 394" width="42.75" height="7.045" transform="translate(89.184 132.371) rotate(-0.43)" fill="#f2f5f9"/>
        <path id="Path_159" data-name="Path 159" d="M273.513,822.569l-10.981.081-19.614.141a8.25,8.25,0,1,0,.124,16.5l21.557-.156,9.036-.068a8.232,8.232,0,0,0,7.885-6.133l2.266-.017,3.717-.028-.033-4.349-3.717.028-2.266.017A8.232,8.232,0,0,0,273.513,822.569Zm3.97,8.221a3.909,3.909,0,0,1-3.883,3.932l-9.89.075-20.7.155a3.9,3.9,0,1,1-.059-7.808L262.728,827l10.817-.081A3.909,3.909,0,0,1,277.483,830.79Z" transform="translate(-198.274 -694.819)" fill="#f2f5f9"/>
        <path id="Path_160" data-name="Path 160" d="M0,539.4.092,551.7l147.677-1.1-.092-12.309-13.2.1-.062-8.387-55.8.418A109.524,109.524,0,0,1,66.832,502.7l-22.054.165a10.423,10.423,0,0,1-.155-20.846l19.614-.148a65.08,65.08,0,0,1,9.629-33.568L56.8,426.428c-.61.407-1.351.918-2.224,1.553a79.552,79.552,0,0,0-9.785,8.471,71.837,71.837,0,0,0-11.1,14.528,58.911,58.911,0,0,0-7.088,19.68,102.132,102.132,0,0,0-.98,10.695c-.155,3.536-.135,7.033,0,10.406.166,3.378.458,6.636.86,9.713s.932,5.967,1.5,8.614a91.24,91.24,0,0,0,3.653,12.571,47.275,47.275,0,0,0,1.943,4.575,47.046,47.046,0,0,1-2.031-4.526,91.324,91.324,0,0,1-3.9-12.529c-.631-2.64-1.191-5.537-1.673-8.617s-.822-6.36-1.048-9.761c-.2-3.4-.289-6.913-.2-10.5a102.112,102.112,0,0,1,.789-10.817,59.823,59.823,0,0,1,6.869-20.24A74.238,74.238,0,0,1,43.472,435.18a81.5,81.5,0,0,1,9.867-8.867q1.242-.932,2.153-1.567l-2.375-3.036c-52.1,35.236-30.331,96.829-25.316,109.1l-14.671.109.064,8.387Zm52.185-93.964a3.706,3.706,0,1,1,0,.006Zm-3.973,16.292a4.726,4.726,0,1,1,4.69-4.76,4.726,4.726,0,0,1-4.69,4.76ZM37.974,473.163a5.591,5.591,0,1,1,1.667,3.948A5.591,5.591,0,0,1,37.974,473.163ZM130.128,538l-112.578.845-.028-3.616,112.586-.84ZM4.377,543.709l138.989-1.038.026,3.617L4.4,547.326Z" transform="translate(0 -356.218)" fill="#f2f5f9"/>
      </g>
    </g>
  </g>
</svg>
