<svg xmlns="http://www.w3.org/2000/svg" width="37.937" height="37" viewBox="0 0 37.937 37">
  <path id="Path_163" data-name="Path 163" d="M21.02,2a18.971,18.971,0,0,0-6,36.969c.949.171,1.291-.413,1.291-.915,0-.451-.015-1.645-.021-3.225C11.017,35.973,9.9,32.284,9.9,32.284A5.012,5.012,0,0,0,7.8,29.509c-1.721-1.177.131-1.151.131-1.151a3.972,3.972,0,0,1,2.9,1.955,4.039,4.039,0,0,0,5.519,1.577,4.066,4.066,0,0,1,1.208-2.537c-4.211-.477-8.638-2.105-8.638-9.376a7.35,7.35,0,0,1,1.947-5.087,6.823,6.823,0,0,1,.188-5.021s1.592-.512,5.215,1.942a17.951,17.951,0,0,1,9.494,0C29.39,9.356,30.98,9.87,30.98,9.87a6.792,6.792,0,0,1,.188,5.021,7.3,7.3,0,0,1,1.947,5.087c0,7.289-4.431,8.891-8.657,9.361a4.545,4.545,0,0,1,1.284,3.511c0,2.537-.023,4.583-.023,5.205,0,.508.339,1.1,1.307.911A18.971,18.971,0,0,0,21.02,2Z" transform="translate(-2.052 -2)" fill="#4c566a" fill-rule="evenodd"/>
</svg>
