<svg xmlns="http://www.w3.org/2000/svg" width="37.747" height="37.81" viewBox="0 0 37.747 37.81">
  <g id="Group_27" data-name="Group 27" transform="translate(-2.997 -2.981)">
    <path id="Path_164" data-name="Path 164" d="M40.622,14.141A13.688,13.688,0,0,0,39.744,9.5a9.663,9.663,0,0,0-5.519-5.519,13.847,13.847,0,0,0-4.582-.88c-2.016-.09-2.656-.115-7.775-.115s-5.775,0-7.777.115a13.847,13.847,0,0,0-4.58.88A9.657,9.657,0,0,0,3.993,9.5a13.738,13.738,0,0,0-.878,4.58C3.024,16.094,3,16.734,3,21.852s0,5.773.117,7.777a13.825,13.825,0,0,0,.878,4.584A9.663,9.663,0,0,0,9.514,39.73a13.8,13.8,0,0,0,4.58.943c2.019.09,2.658.117,7.777.117s5.775,0,7.777-.117a13.814,13.814,0,0,0,4.582-.878,9.674,9.674,0,0,0,5.519-5.519,13.8,13.8,0,0,0,.878-4.584c.09-2.016.117-2.656.117-7.777S40.74,16.147,40.622,14.141ZM21.856,31.532a9.69,9.69,0,1,1,9.69-9.69A9.688,9.688,0,0,1,21.856,31.532Zm10.076-17.48a2.259,2.259,0,1,1,2.258-2.26A2.258,2.258,0,0,1,31.932,14.053Z" transform="translate(0 0)" fill="#4c566a"/>
    <circle id="Ellipse_12" data-name="Ellipse 12" cx="6" cy="6" r="6" transform="translate(15.736 15.981)" fill="#4c566a"/>
  </g>
</svg>
