<svg xmlns="http://www.w3.org/2000/svg" width="45.553" height="37" viewBox="0 0 45.553 37">
  <path id="Path_161" data-name="Path 161" d="M42.873,13.24c.03.406.03.809.03,1.212,0,12.343-9.395,26.567-26.564,26.567A26.381,26.381,0,0,1,2,36.826a19.511,19.511,0,0,0,2.255.116,18.706,18.706,0,0,0,11.592-3.989,9.355,9.355,0,0,1-8.732-6.474,11.89,11.89,0,0,0,1.764.144,9.934,9.934,0,0,0,2.459-.318,9.335,9.335,0,0,1-7.487-9.163v-.116A9.422,9.422,0,0,0,8.071,18.21,9.35,9.35,0,0,1,5.178,5.725,26.557,26.557,0,0,0,24.431,15.5a10.609,10.609,0,0,1-.232-2.14A9.346,9.346,0,0,1,40.358,6.967a18.444,18.444,0,0,0,5.925-2.255,9.318,9.318,0,0,1-4.105,5.146,18.713,18.713,0,0,0,5.375-1.446A20.039,20.039,0,0,1,42.873,13.24Z" transform="translate(-2 -4.019)" fill="#4c566a"/>
</svg>
